<svg width="64" height="64" viewBox="0 0 64 64" fill="none" xmlns="http://www.w3.org/2000/svg">
<path d="M44.1497 34.4164L42.935 35.6239C42.935 35.6239 40.0481 38.4946 32.1681 30.6591C24.2882 22.8239 27.175 19.9534 27.175 19.9534L27.9398 19.1929C29.8241 17.3195 30.0017 14.3117 28.3577 12.1159L24.9952 7.62412C22.9606 4.90636 19.0291 4.54735 16.697 6.86612L12.5114 11.028C11.3551 12.1777 10.5802 13.6682 10.6742 15.3215C10.9146 19.5514 12.8284 28.6524 23.5075 39.2708C34.8321 50.5311 45.458 50.9786 49.8033 50.5735C51.1777 50.4455 52.3729 49.7455 53.3361 48.7876L57.1244 45.0212C59.6814 42.4786 58.9604 38.1196 55.6886 36.3412L50.594 33.5716C48.4457 32.4039 45.8286 32.7468 44.1497 34.4164Z" fill="#007BFF"/>
</svg>
